# xmcd
#
# Track frame offsets:
#	150
#	15227
#	27754
#	47181
#	60533
#	72235
#	84087
#	90914
#	102541
#	118218
#	132995
#	150472
#	154224
#	157976
#	165703
#	187455
#	200132
#	216034
#	231561
#	241388
#
# Disc length: 3586 seconds
#
# Revision: 0
# Processed by: cddbd v1.5.1PL0 Copyright (c) Steve Scherf et al.
# Submitted via: audiograbber 1.80
#
DISCID=100e0014
DTITLE=Ted Egan - The Very Best Of Ted Egan - My Australia
DYEAR=1996
DGENRE=Country
TTITLE0=The Goanna Drover
TTITLE1=The Man From Humpty Doo
TTITLE2=Matt Savage - Boss Drover
TTITLE3=Marsupial Joe
TTITLE4=Rodger Was No Death Adder
TTITLE5=Have You Been To The Rock?
TTITLE6=Khala Khala - The Afghan Camel Drivers Song
TTITLE7=The Bangtail Munster
TTITLE8=Jacky Howe - The Warwick Gun
TTITLE9=The Characters Of The Outback
TTITLE10=She's On Again In Darwin
TTITLE11=The Black Cockatoo
TTITLE12=Brolea Song
TTITLE13=Old T.I.
TTITLE14=Sayonara Nakamura
TTITLE15=The Birille Races
TTITLE16=Arnhem Land Lullaby
TTITLE17=Ride On Little Cowboy
TTITLE18=Daly River Oh
TTITLE19=Drinkers Of The Territory
EXTD=
EXTT0=
EXTT1=
EXTT2=
EXTT3=
EXTT4=
EXTT5=
EXTT6=
EXTT7=
EXTT8=
EXTT9=
EXTT10=
EXTT11=
EXTT12=
EXTT13=
EXTT14=
EXTT15=
EXTT16=
EXTT17=
EXTT18=
EXTT19=
PLAYORDER=
